<svg width="1280" height="720" viewBox="0 0 1280 720" fill="none" xmlns="http://www.w3.org/2000/svg">
<g clip-path="url(#clip0)">
<path d="M1304 584.404C1284 615.931 1254.99 567.986 1224.43 581.277C1215.6 585.111 1206.42 588.378 1196.97 591.05C1141.36 606.846 1079.12 602.655 1030.23 594.315C995.939 588.461 961.132 584.859 926.14 583.544C916.16 583.176 906.17 582.993 896.17 582.996C880.75 583.012 865.333 583.482 849.92 584.404C749.75 590.428 640.5 594.315 484 581.277L697.64 199L760.59 331.279L780.68 373.504L836.05 311.317L864.64 279.209L994.84 401.38L1031.64 334.864L1384 565.26L1329.37 616.381L1304 584.404Z" fill="#F2F2F2"/>
<path opacity="0.1" d="M926.14 596.583C916.16 596.214 906.17 596.031 896.17 596.034L780.68 386.542L926.14 596.583Z" fill="black"/>
<path opacity="0.1" d="M836.051 324.354L864.64 306.161L994.64 428.929L862.64 324.167L836.051 324.354Z" fill="black"/>
<path opacity="0.1" d="M1224.43 594.315C1215.6 598.149 1206.42 601.416 1196.97 604.088L994.84 414.418L1224.43 594.315Z" fill="black"/>
<path opacity="0.1" d="M670 285.335L696 238.683L732 306.615L701 257.508L670 285.335Z" fill="black"/>
<path d="M702 613.404C682 644.931 652.99 596.986 622.43 610.277C613.599 614.111 604.418 617.378 594.97 620.05C539.36 635.846 477.12 631.655 428.23 623.315C393.939 617.461 359.132 613.859 324.14 612.544C314.16 612.176 304.17 611.993 294.17 611.996C278.75 612.012 263.333 612.482 247.92 613.404C147.75 619.428 38.5 623.315 -118 610.277L95.64 228L158.59 360.279L178.68 402.504L234.05 340.317L262.64 308.209L392.84 430.38L429.64 363.864L782 594.26L727.37 645.381L702 613.404Z" fill="#F2F2F2"/>
<path opacity="0.1" d="M324.14 625.583C314.16 625.214 304.17 625.031 294.17 625.034L178.68 415.542L324.14 625.583Z" fill="black"/>
<path opacity="0.1" d="M234.051 353.354L262.64 335.161L392.64 457.929L260.64 353.167L234.051 353.354Z" fill="black"/>
<path opacity="0.1" d="M622.43 623.315C613.599 627.149 604.419 630.416 594.97 633.088L392.84 443.418L622.43 623.315Z" fill="black"/>
<path opacity="0.1" d="M68 314.335L93.9999 267.683L130 335.615L98.9999 286.508L68 314.335Z" fill="black"/>
<path opacity="0.1" d="M316 426C346.376 426 371 421.971 371 417C371 412.029 346.376 408 316 408C285.624 408 261 412.029 261 417C261 421.971 285.624 426 316 426Z" fill="black"/>
<path d="M387 348.042C387.025 399.131 356.587 416.982 319.034 417C318.161 417 317.293 416.991 316.429 416.972C314.689 416.935 312.966 416.857 311.262 416.737C277.367 414.36 251.023 395.621 251 348.108C250.976 298.939 313.942 236.857 318.664 232.267C318.668 232.267 318.668 232.267 318.672 232.262C318.852 232.087 318.943 232 318.943 232C318.943 232 386.975 296.957 387 348.042Z" fill="#6C63FF"/>
<path d="M316.372 409.213L341.222 374.532L316.311 413.019L316.246 417C314.506 416.963 312.784 416.885 311.08 416.765L313.734 365.646L313.713 365.251L313.759 365.176L314.011 360.345L289 321.786L314.085 356.727L314.148 357.751L316.153 319.129L294.738 279.281L316.412 312.342L318.481 232.266L318.489 232L318.489 232.262L318.169 295.41L339.452 270.365L318.08 300.848L317.534 335.43L337.411 302.234L317.457 340.515L317.153 359.744L346 313.535L317.044 366.453L316.372 409.213Z" fill="#3F3D56"/>
<path opacity="0.1" d="M1204 541C1234.38 541 1259 536.971 1259 532C1259 527.029 1234.38 523 1204 523C1173.62 523 1149 527.029 1149 532C1149 536.971 1173.62 541 1204 541Z" fill="black"/>
<path d="M1275 463.042C1275.02 514.131 1244.59 531.982 1207.03 532C1206.16 532 1205.29 531.991 1204.43 531.972C1202.69 531.936 1200.97 531.857 1199.26 531.737C1165.37 529.36 1139.02 510.621 1139 463.108C1138.98 413.939 1201.94 351.857 1206.66 347.267C1206.67 347.267 1206.67 347.267 1206.67 347.262C1206.85 347.087 1206.94 347 1206.94 347C1206.94 347 1274.98 411.957 1275 463.042Z" fill="#6C63FF"/>
<path d="M1204.37 524.213L1229.22 489.532L1204.31 528.019L1204.25 532C1202.51 531.963 1200.78 531.885 1199.08 531.765L1201.73 480.646L1201.71 480.251L1201.76 480.176L1202.01 475.346L1177 436.786L1202.08 471.727L1202.15 472.751L1204.15 434.129L1182.74 394.281L1204.41 427.342L1206.48 347.266L1206.49 347L1206.49 347.262L1206.17 410.41L1227.45 385.365L1206.08 415.848L1205.53 450.431L1225.41 417.234L1205.46 455.515L1205.15 474.744L1234 428.535L1205.04 481.453L1204.37 524.213Z" fill="#3F3D56"/>
<rect y="570" width="1283" height="150" fill="#D94ACA"/>
<path opacity="0.1" d="M1280 2.97266H0V582.666H1280V2.97266Z" fill="#F2F2F2"/>
<path d="M648 0H632V583H648V0Z" fill="#2F2E41"/>
<path d="M1280 0H1257V583H1280V0Z" fill="#2F2E41"/>
<path d="M1280 583V555H-0.00012207V583H1280Z" fill="#2F2E41"/>
<path opacity="0.1" d="M180.896 315.115L66.4936 370.124V415.628L239.796 315.115H180.896Z" fill="white"/>
<path d="M369.38 315.115L66.4936 484.727V523.493L461.266 315.115H369.38Z" fill="white" fill-opacity="0.1"/>
<path d="M24 0H0V583H24V0Z" fill="#2F2E41"/>
<path opacity="0.1" d="M1095.05 47.5639L839.48 279.441L918.441 285.387L1138.7 38.6455L1095.05 47.5639Z" fill="white"/>
<path d="M1280 25V0L-0.00012207 0V25L1280 25Z" fill="#2F2E41"/>
<path d="M1280 308V291L0 291V308L1280 308Z" fill="#2F2E41"/>
<rect x="280.582" y="640.024" width="35" height="89" transform="rotate(23.7038 280.582 640.024)" fill="#C4C4C4"/>
<rect x="933.701" y="667.627" width="35" height="89" transform="rotate(-35.34 933.701 667.627)" fill="#C4C4C4"/>
<path d="M1280 585.487C1280 586.017 1279.92 586.544 1279.78 587.051C1276.04 602.562 1218.33 630.429 1124.9 656.706C1109.3 661.059 1092.7 665.387 1075.21 669.636C981.583 691.786 886.615 706.605 791.037 713.978C742.597 717.81 692.024 720 639.989 720C291.873 720 8.67875 622.061 0.221991 587.051C0.0801501 586.544 0.00751349 586.017 0.00638796 585.487C0.00270406 585.154 0.0348127 584.821 0.102163 584.496C0.124552 584.29 0.172915 584.088 0.245898 583.897C9.51719 553.475 292.376 598.521 639.989 598.521C707.62 598.521 772.83 596.827 834.016 594.298C955.549 589.267 1061.37 581.029 1139.37 576.519C1146.96 576.102 1154.29 575.685 1161.34 575.346C1232.9 571.671 1276.24 572.296 1279.76 583.897C1279.83 584.088 1279.88 584.29 1279.9 584.496C1279.97 584.821 1280 585.154 1280 585.487Z" fill="#3F3D56"/>
<path opacity="0.1" d="M1280 585.487C1279.99 586.017 1279.92 586.544 1279.78 587.051C1276.04 602.562 1218.33 630.429 1124.9 656.706C1109.3 661.059 1092.7 665.387 1075.21 669.636C981.583 691.786 886.615 706.605 791.037 713.978C742.596 717.81 692.024 720 639.989 720C291.873 720 8.67875 622.061 0.221991 587.051C0.0801501 586.544 0.00751349 586.017 0.00638796 585.487C0.00270406 585.154 0.0348127 584.821 0.102163 584.496C0.124552 584.29 0.172915 584.088 0.245898 583.897C9.51719 553.475 292.376 598.521 639.989 598.521C707.62 598.521 772.83 596.827 834.016 594.298C955.549 589.267 1061.37 581.029 1139.37 576.519C1146.96 576.102 1154.29 575.685 1161.34 575.346C1232.9 571.671 1276.24 572.296 1279.76 583.897C1279.83 584.088 1279.88 584.29 1279.9 584.496C1279.97 584.821 1280 585.154 1280 585.487Z" fill="black"/>
<path d="M640 646.238C993.462 646.238 1280 619.041 1280 585.492C1280 551.943 993.462 524.746 640 524.746C286.538 524.746 0 551.943 0 585.492C0 619.041 286.538 646.238 640 646.238Z" fill="#ACA8E4"/>
<path opacity="0.2" d="M134 589C160.51 589 182 585.418 182 581C182 576.582 160.51 573 134 573C107.49 573 86 576.582 86 581C86 585.418 107.49 589 134 589Z" fill="#39374D"/>
<path d="M103.225 522.732H97.4105V576.507C97.4105 576.507 134.941 589.806 171.414 576.507V522.732H103.225Z" fill="#3F3D56"/>
<path d="M133.884 529.093C154.027 529.093 170.357 526.375 170.357 523.022C170.357 519.668 154.027 516.95 133.884 516.95C113.74 516.95 97.4105 519.668 97.4105 523.022C97.4105 526.375 113.74 529.093 133.884 529.093Z" fill="#39374D"/>
<path d="M133.023 516.434V443.023H134.023V516.434H133.023Z" fill="white" stroke="black"/>
<path d="M111.81 442.751C111.926 442.834 112.062 442.932 112.217 443.045C112.792 443.465 113.622 444.091 114.637 444.912C116.669 446.555 119.442 448.98 122.404 452.102C128.332 458.352 134.992 467.369 137.999 478.485C141.006 489.6 139.801 500.745 137.831 509.131C136.847 513.321 135.675 516.813 134.749 519.256C134.286 520.478 133.885 521.436 133.6 522.088C133.523 522.264 133.455 522.418 133.396 522.548C133.28 522.465 133.143 522.367 132.989 522.254C132.414 521.834 131.584 521.208 130.569 520.387C128.537 518.744 125.764 516.319 122.802 513.197C116.874 506.947 110.214 497.93 107.207 486.814C104.2 475.699 105.405 464.554 107.375 456.168C108.359 451.978 109.531 448.486 110.457 446.043C110.92 444.821 111.321 443.863 111.606 443.21C111.683 443.035 111.751 442.881 111.81 442.751Z" fill="white" stroke="#6C63FF"/>
<path d="M115.648 482.12C132.313 498.343 134.349 523.281 134.349 523.281C134.349 523.281 109.365 521.916 92.7003 505.694C76.0355 489.471 74 464.534 74 464.534C74 464.534 98.9836 465.898 115.648 482.12Z" fill="#6C63FF"/>
<path d="M161.491 486.814C158.484 497.93 151.824 506.947 145.895 513.197C142.933 516.319 140.16 518.744 138.129 520.387C137.113 521.208 136.283 521.834 135.709 522.254C135.554 522.367 135.418 522.465 135.301 522.548C135.242 522.418 135.174 522.264 135.097 522.088C134.813 521.436 134.412 520.478 133.949 519.256C133.023 516.813 131.85 513.321 130.866 509.131C128.897 500.745 127.692 489.6 130.698 478.485C133.705 467.369 140.365 458.352 146.294 452.102C149.255 448.98 152.029 446.555 154.06 444.912C155.076 444.091 155.905 443.465 156.48 443.045C156.635 442.932 156.771 442.834 156.888 442.751C156.947 442.881 157.015 443.035 157.092 443.21C157.376 443.863 157.777 444.821 158.24 446.043C159.166 448.486 160.339 451.978 161.323 456.168C163.292 464.554 164.497 475.699 161.491 486.814Z" fill="white" stroke="#6C63FF"/>
<path d="M153.049 482.12C136.384 498.343 134.349 523.281 134.349 523.281C134.349 523.281 159.332 521.916 175.997 505.694C192.662 489.471 194.697 464.534 194.697 464.534C194.697 464.534 169.714 465.898 153.049 482.12Z" fill="#6C63FF"/>
<path d="M133.523 454.046C139.334 454.046 144.046 449.334 144.046 443.523C144.046 437.711 139.334 433 133.523 433C127.711 433 123 437.711 123 443.523C123 449.334 127.711 454.046 133.523 454.046Z" fill="#6C63FF"/>
</g>
<defs>
<clipPath id="clip0">
<rect width="1280" height="720" fill="white"/>
</clipPath>
</defs>
</svg>
