<svg width="314" height="378" viewBox="0 0 314 378" fill="none" xmlns="http://www.w3.org/2000/svg">
<path d="M6.32799e-06 59.1198L46.6551 377.729L195.112 355.99L186.631 344.272C186.631 344.272 195.218 348.202 201.935 351.048L209.024 345.035C208.147 340.542 207.001 335.99 207.001 335.99C207.001 335.99 211.784 337.226 216.838 338.45L227.43 329.508C226.426 324.991 225.298 320.846 225.298 320.846L237.206 321.265L241.823 317.352L231.005 297.342L258.119 303.603L266.144 296.775L262.038 286.692L272.333 291.53L277.745 286.965L278.278 277.7L283.985 281.698L286.692 279.422L280.424 267.38C280.424 267.38 290.549 269.657 296.699 270.975L303.111 265.57L267.151 20L6.32799e-06 59.1198Z" fill="#DECE24"/>
<path d="M90.8546 0.092836L190.918 39.0816C190.918 39.0816 192.06 54.3058 185.842 58.2603C184.089 59.4082 182.699 61.1892 181.882 63.3375C181.064 65.4858 180.862 67.886 181.306 70.1797H164.922L165.478 94C165.478 94 60.3233 58.2603 62.0203 35.1084L73.8839 21.2024L69.3637 9.28303H84.6372L81.7983 0L90.8546 0.092836Z" fill="#39374D"/>
</svg>
